{"title":"Riot.2015.BRRip.480p.x264.AAC-VYTO [P2PDL]","uid":14280655,"size":322335067,"categoryP":"video","categoryS":"movies","magnet":"?xt=urn:btih:d695c91e0e57fafe9e0805c2f5404ec855ba26dc&amp;dn=Riot.2015.BRRip.480p.x264.AAC-VYTO+%5BP2PDL%5D&amp;tr=udp%3A%2F%2Ftracker.leechers-paradise.org%3A6969&amp;tr=udp%3A%2F%2Fzer0day.ch%3A1337&amp;tr=udp%3A%2F%2Fopen.demonii.com%3A1337&amp;tr=udp%3A%2F%2Ftracker.coppersurfer.tk%3A6969&amp;tr=udp%3A%2F%2Fexodus.desync.com%3A6969","seeders":0,"leechers":1,"uploader":"VYTOP2PDL","files":7,"time":1460351388,"description":"Riot.2015.BRRip.480p.x264.AAC-VYTO\r\n\r\n\r\nGenre: Action   \nhttp://www.imdb.com/title/tt4642044/\r\n\r\n\r\nFormat                                   : MPEG-4\r\nFile size                                : 302 MiB\r\nDuration                                 : 1h 27mn\r\nOverall bit rate                         : 482 Kbps\r\n\r\nVideo\r\nFormat                                   : AVC\r\nBit rate                                 : 447 Kbps\r\nWidth                                    : 720 pixels\r\nHeight                                   : 400 pixels\r\nDisplay aspect ratio                     : 16:9\r\nFrame rate mode                          : Constant\r\nFrame rate                               : 23.976 fps\r\nBit depth                                : 8 bits\r\nStream size                              : 280 MiB (93%)\r\nWriting library                          : x264\r\n\r\nAudio\r\nFormat                                   : AAC\r\nBit rate mode                            : Variable\r\nBit rate                                 : 32.0 Kbps\r\nChannel(s)                               : 2 channels \r\nChannel positions                        : Front: L R \r\nSampling rate                            : 48.0 KHz\r\nStream size                              : 20.0 MiB (7%)\r\nLanguage                                 : English\r\n\r\nSubtitle                                 : Yes (English)\r\n\r\nScreen Shot: (Click link to view)\r\n \nhttps://ititli.com/XhP \nhttps://ititli.com/Xhf \nhttps://ititli.com/Xhu \nhttps://ititli.com/Xhv \nhttps://ititli.com/XhR \nhttps://ititli.com/Xhy \nhttps://ititli.com/Xh3 \nhttps://ititli.com/XhE \nhttps://ititli.com/XhQ\r\n\r\n----------------------------------------------------------------------------------------------------\r\n\r\n\r\nEncoder Notes: Looking For Early Access To Anything You Can Provide WEBDL, DVDScr, DVDR, BluRay,\r\nDirect Audio, Music Releases and Seedboxes. If You Got anything to offer please contact us.\r\n\r\nSupport us by donating BC - 1FgwdzPsd1y25Gea8wP1qni35uGCtmkRCD\r\n\r\nFind us and join us!","torrent":{"xt":"urn:btih:d695c91e0e57fafe9e0805c2f5404ec855ba26dc","amp;dn":"Riot.2015.BRRip.480p.x264.AAC-VYTO+%5BP2PDL%5D","amp;tr":["udp%3A%2F%2Ftracker.leechers-paradise.org%3A6969","udp%3A%2F%2Fzer0day.ch%3A1337","udp%3A%2F%2Fopen.demonii.com%3A1337","udp%3A%2F%2Ftracker.coppersurfer.tk%3A6969","udp%3A%2F%2Fexodus.desync.com%3A6969"],"infoHash":"d695c91e0e57fafe9e0805c2f5404ec855ba26dc","infoHashBuffer":{"type":"Buffer","data":[214,149,201,30,14,87,250,254,158,8,5,194,245,64,78,200,85,186,38,220]},"announce":[],"urlList":[]}}